Love for All and Sharing is the first step to solving all the problems of humanity.

Website I want to share. 
               
   http://www.scenetime.com
 
 
  Credit to EVERYONE for sharing and seeding back
 especially to SCENETIME.COM where i get all my 
 downloads.


 support www.scenetime.com to grow faster.

                             
                                                            
                                                   

.                 ..................................NFO:....................................*******************************************************************************
                       2.37.2006.DVDRip.AC3.X264-BARC0DE
*******************************************************************************

-------------------------------------------------------------------------------
                              General Information
-------------------------------------------------------------------------------
Type.................: Movie
Name.................: 2:37
Movie Information....: http://www.imdb.com/title/tt0472582/
Genre................: Drama
Subs.................: Spanish
-------------------------------------------------------------------------------
                                    PLOT
-------------------------------------------------------------------------------
A contemporary, ensemble drama telling the complex tale of six high school students 
whose lives are interwoven with situations that so many of today's youth are faced with. 
The story takes place during a normal school day. At precisely 2:37 a tragedy will 
occur, affecting the lives of a group of students and their teachers. As the story 
unfolds, the individual stories of the six teenagers are revealed, each with its own 
explosive significance. An unwanted pregnancy unravels a terrible, dark secret; all 
is not as it appears for the seemingly confident school football hero; an outcast must 
deal with everyday taunts from his peers; a beautiful young girl battles an eating 
disorder; a stellar student constantly struggles to win his parents' approval; while 
another uses drugs to escape from his own demons. 

-------------------------------------------------------------------------------
                                    CAST
-------------------------------------------------------------------------------
Teresa Palmer	... 	Melody
Frank Sweet	... 	Marcus
Sam Harris	... 	Luke
Charles Baird	... 	'Uneven' Steven
Joel Mackenzie	... 	Sean
Marni Spillane	... 	Sarah
Clementine Mellor	... 	Kelly
Sarah Hudson	... 	Julz
Gary Sweet	... 	Mr. Darcy
Amy Schapel	... 	Lacey
Xavier Samuel	... 	Theo

-------------------------------------------------------------------------------
                                    MEDiA iNFO
-------------------------------------------------------------------------------

General
Complete name                    : 2.37.2006.DVDRip.AC3.X264-BARC0DE.mkv
Format                           : Matroska
File size                        : 1.43 GiB
Duration                         : 1h 35mn
Overall bit rate                 : 2 151 Kbps

Video
ID                               : 1
Format                           : AVC
Format/Info                      : Advanced Video Codec
Format profile                   : High@L3.0
Format settings, CABAC           : Yes
Format settings, ReFrames        : 3 frames
Muxing mode                      : Container profile=Unknown@3.0
Codec ID                         : V_MPEG4/ISO/AVC
Duration                         : 1h 35mn
Bit rate                         : 2 005 Kbps
Width                            : 720 pixels
Height                           : 400 pixels
Display aspect ratio             : 16:9
Frame rate                       : 25.000 fps
Color space                      : YUV
Chroma subsampling               : 4:2:0
Bit depth                        : 8 bits
Scan type                        : Progressive
Bits/(Pixel*Frame)               : 0.278
Stream size                      : 1.27 GiB (89%)
Writing library                  : x264 core 79


Audio
ID                               : 2
Format                           : AC-3
Format/Info                      : Audio Coding 3
Mode extension                   : CM (complete main)
Codec ID                         : A_AC3
Duration                         : 1h 35mn
Bit rate mode                    : Constant
Bit rate                         : 192 Kbps
Channel(s)                       : 2 channels
Channel positions                : Front: L R
Sampling rate                    : 48.0 KHz
Stream size                      : 131 MiB (9%)
Language                         : English

Text
ID                               : 3
Format                           : VobSub
Codec ID                         : S_VOBSUB
Codec ID/Info                    : The same subtitle format used on DVDs
Language                         : Spanish

Menu
00:00:00.000                     : Chapter 1
00:09:43.800                     : Chapter 2
00:18:46.920                     : Chapter 3
00:27:40.680                     : Chapter 4
00:34:38.760                     : Chapter 5
00:42:38.880                     : Chapter 6
00:50:57.120                     : Chapter 7
00:58:23.760                     : Chapter 8
01:04:30.480                     : Chapter 9
01:12:40.920                     : Chapter 10
01:20:38.280                     : Chapter 11
01:28:28.680                     : Chapter 12